<svg xmlns="http://www.w3.org/2000/svg" viewBox="0 0 400 400" class="logo-bilibili" style="width:100%;height:100%;">
  <!-- bilibili Logo SVG -->
  <!-- 使用 evenodd 填充规则自动处理内部孔洞 -->
  <path d="M352.15,202.55L351.83,202.87L349.28,202.87L348.96,203.19L347.69,203.19L347.37,203.51L347.69,203.83L347.69,207.97L348.01,208.29L348.01,211.48L348.33,211.80L348.33,215.31L348.64,215.63L348.64,218.82L348.96,219.14L348.96,222.97L349.28,223.29L349.28,225.84L349.60,226.16L349.60,228.71L349.92,229.03L349.92,232.22L350.24,232.54L350.24,235.09L350.56,235.41L350.56,238.28L358.53,238.28L358.53,206.70L358.21,206.38L358.21,203.19L357.89,203.19L357.58,202.87L356.30,202.87L355.98,202.55Z M254.86,202.55L254.55,202.87L251.99,202.87L251.67,203.19L250.72,203.19L250.72,208.61L251.04,208.93L251.04,212.44L251.36,212.76L251.36,216.27L251.67,216.59L251.67,220.10L251.99,220.41L251.99,222.97L252.31,223.29L252.31,226.16L252.63,226.48L252.63,229.35L252.95,229.67L252.95,232.22L253.27,232.54L253.27,236.36L253.59,236.68L253.59,238.28L261.56,238.28L261.56,207.97L261.24,207.66L261.24,203.51L260.93,203.19L260.61,203.19L260.29,202.87L259.01,202.87L258.69,202.55Z M323.13,201.59L322.81,201.91L320.89,201.91L320.57,202.23L319.30,202.23L318.98,202.55L317.70,202.55L317.38,202.87L317.70,203.19L317.70,205.10L318.02,205.42L318.02,207.02L318.34,207.34L318.34,208.93L318.66,209.25L318.66,210.85L318.98,211.16L318.98,212.44L319.30,212.76L319.30,214.04L319.62,214.35L319.62,215.63L319.94,215.95L319.94,217.22L320.26,217.54L320.26,218.82L320.57,219.14L320.57,220.73L320.89,221.05L320.89,222.33L321.21,222.65L321.21,223.92L321.53,224.24L321.53,225.52L321.85,225.84L321.85,227.11L322.17,227.43L322.17,228.71L322.49,229.03L322.49,230.30L322.81,230.62L322.81,231.90L323.13,232.22L323.13,233.81L323.44,234.13L323.44,235.41L323.76,235.73L323.76,237.96L324.40,237.96L324.72,237.64L326.00,237.64L326.32,237.32L327.59,237.32L327.91,237.00L329.51,237.00L329.82,236.68L331.10,236.68L331.42,236.36L331.74,236.36L331.74,235.41L331.42,235.09L331.42,232.22L331.10,231.90L331.10,228.39L330.78,228.07L330.78,225.20L330.46,224.88L330.46,222.33L330.14,222.01L330.14,218.82L329.82,218.50L329.82,215.95L329.51,215.63L329.51,213.72L329.19,213.40L329.19,210.53L328.87,210.21L328.87,207.97L328.55,207.66L328.55,205.42L328.23,205.10L328.23,202.87L327.91,202.55L327.91,201.91L327.59,201.91L327.27,201.59Z M226.48,201.59L226.16,201.91L224.56,201.91L224.24,202.23L222.97,202.23L222.65,202.55L221.05,202.55L220.73,202.87L220.73,204.47L221.05,204.78L221.05,206.06L221.37,206.38L221.37,208.29L221.69,208.61L221.69,210.21L222.01,210.53L222.01,211.80L222.33,212.12L222.33,213.40L222.65,213.72L222.65,214.99L222.97,215.31L222.97,216.91L223.29,217.22L223.29,218.82L223.60,219.14L223.60,220.41L223.92,220.73L223.92,221.69L224.24,222.01L224.24,223.29L224.56,223.60L224.56,224.88L224.88,225.20L224.88,226.48L225.20,226.79L225.20,228.07L225.52,228.39L225.52,229.67L225.84,229.98L225.84,231.58L226.16,231.90L226.16,233.17L226.48,233.49L226.48,234.77L226.79,235.09L226.79,236.68L227.11,237.00L227.11,237.64L228.07,237.64L228.39,237.32L229.98,237.32L230.30,237.00L231.90,237.00L232.22,236.68L233.81,236.68L234.13,236.36L234.77,236.36L234.77,234.77L234.45,234.45L234.45,231.90L234.13,231.58L234.13,228.07L233.81,227.75L233.81,224.56L233.49,224.24L233.49,221.05L233.17,220.73L233.17,218.18L232.85,217.86L232.85,214.99L232.54,214.67L232.54,211.80L232.22,211.48L232.22,209.25L231.90,208.93L231.90,206.70L231.58,206.38L231.58,204.47L231.26,204.15L231.26,202.23L230.62,201.59Z M352.79,185.01L352.79,190.43L353.11,190.75L353.11,196.17L353.43,196.49L353.43,197.77L353.75,197.77L354.07,198.09L356.30,198.09L356.62,198.41L357.26,198.41L357.58,198.09L357.58,185.33L357.26,185.01Z M349.28,185.01L348.96,185.33L347.05,185.33L346.73,185.65L346.09,185.65L346.09,187.56L346.41,187.88L346.41,190.11L346.73,190.43L346.73,193.62L347.05,193.94L347.05,196.49L347.37,196.81L347.37,198.41L348.64,198.41L348.96,198.09L350.88,198.09L350.88,192.98L350.56,192.66L350.56,188.20L350.24,187.88L350.24,185.01Z M255.82,185.01L255.82,192.34L256.14,192.66L256.14,197.77L256.46,198.09L259.01,198.09L259.33,198.41L260.61,198.41L260.61,185.33L259.65,185.33L259.33,185.01Z M251.99,185.01L251.67,185.33L250.08,185.33L249.76,185.65L249.12,185.65L248.80,185.96L249.12,186.28L249.12,189.15L249.44,189.47L249.44,191.39L249.76,191.71L249.76,194.90L250.08,195.22L250.08,198.09L250.40,198.41L251.67,198.41L251.99,198.09L253.91,198.09L253.91,193.62L253.59,193.30L253.59,189.79L253.27,189.47L253.27,185.65L252.95,185.33L252.95,185.01Z M317.70,184.37L317.38,184.69L316.11,184.69L315.79,185.01L314.83,185.01L314.51,185.33L314.51,186.28L314.83,186.60L314.83,187.88L315.15,188.20L315.15,189.47L315.47,189.79L315.47,191.07L315.79,191.39L315.79,192.66L316.11,192.98L316.11,194.26L316.43,194.58L316.43,195.85L316.75,196.17L316.75,197.45L317.07,197.77L317.38,197.77L317.70,197.45L319.30,197.45L319.62,197.13L320.26,197.13L320.57,196.81L320.26,196.49L320.26,194.58L319.94,194.26L319.94,192.03L319.62,191.71L319.62,189.79L319.30,189.47L319.30,187.88L318.98,187.56L318.98,185.96L318.66,185.65L318.66,184.37Z M220.73,184.37L220.41,184.69L219.46,184.69L219.14,185.01L217.86,185.01L217.54,185.33L217.22,185.33L217.54,185.65L217.54,186.60L217.86,186.92L217.86,188.20L218.18,188.52L218.18,189.79L218.50,190.11L218.50,191.07L218.82,191.39L218.82,192.98L219.14,193.30L219.14,194.26L219.46,194.58L219.46,195.85L219.78,196.17L219.78,197.45L220.10,197.77L221.05,197.77L221.37,197.45L222.65,197.45L222.97,197.13L223.60,197.13L223.29,196.81L223.29,194.26L222.97,193.94L222.97,192.34L222.65,192.03L222.65,189.79L222.33,189.47L222.33,188.20L222.01,187.88L222.01,185.96L221.69,185.65L221.69,184.37Z M321.85,183.73L321.53,184.05L320.89,184.05L321.21,184.37L321.21,186.60L321.53,186.92L321.53,189.15L321.85,189.47L321.85,191.07L322.17,191.39L322.17,193.62L322.49,193.94L322.49,195.53L322.81,195.85L322.81,196.49L326.95,196.49L326.95,196.17L326.63,195.85L326.63,192.66L326.32,192.34L326.32,189.15L326.00,188.84L326.00,185.96L325.68,185.65L325.68,183.73Z M225.20,183.73L224.88,184.05L224.24,184.05L224.24,185.96L224.56,186.28L224.56,188.20L224.88,188.52L224.88,190.43L225.20,190.75L225.20,192.66L225.52,192.98L225.52,194.90L225.84,195.22L225.84,196.49L227.43,196.49L227.75,196.81L229.67,196.81L229.98,196.49L229.98,196.17L229.67,195.85L229.67,191.71L229.35,191.39L229.35,188.52L229.03,188.20L229.03,185.33L228.71,185.01L228.71,183.73Z M334.61,168.10L334.29,168.42L331.42,168.42L331.10,168.74L328.55,168.74L328.55,169.70L328.87,170.02L328.87,171.61L329.19,171.93L329.19,173.52L329.51,173.84L329.51,175.12L329.82,175.44L329.82,177.35L330.14,177.67L330.14,179.27L330.46,179.59L330.46,180.86L330.78,181.18L330.78,183.09L331.10,183.41L331.10,185.01L331.42,185.33L331.42,187.24L331.74,187.56L331.74,189.15L332.06,189.47L332.06,191.39L332.38,191.71L332.38,193.94L332.70,194.26L332.70,196.49L333.01,196.81L333.01,199.36L333.33,199.68L333.33,202.23L333.65,202.55L333.65,204.78L333.97,205.10L333.97,207.66L334.29,207.97L334.29,210.21L334.61,210.53L334.61,213.40L334.93,213.72L334.93,216.59L335.25,216.91L335.25,219.46L335.57,219.78L335.57,222.97L335.89,223.29L335.89,225.52L336.20,225.84L336.20,228.07L336.52,228.39L336.52,232.54L336.84,232.85L336.84,233.17L337.16,233.49L343.54,233.49L343.86,233.17L343.54,232.85L343.54,229.03L343.22,228.71L343.22,225.52L342.90,225.20L342.90,221.69L342.58,221.37L342.58,216.91L342.26,216.59L342.26,213.08L341.95,212.76L341.95,208.93L341.63,208.61L341.63,204.47L341.31,204.15L341.31,200.64L340.99,200.32L340.99,196.17L340.67,195.85L340.67,191.71L340.35,191.39L340.35,187.88L340.03,187.56L340.03,183.41L339.71,183.09L339.71,178.31L339.39,177.99L339.39,174.16L339.07,173.84L339.07,168.74L338.76,168.42L338.12,168.42L337.80,168.10Z M237.96,168.10L237.64,168.42L234.45,168.42L234.13,168.74L231.58,168.74L231.58,169.70L231.90,170.02L231.90,171.61L232.22,171.93L232.22,173.21L232.54,173.52L232.54,175.12L232.85,175.44L232.85,177.03L233.17,177.35L233.17,178.63L233.49,178.95L233.49,180.86L233.81,181.18L233.81,182.78L234.13,183.09L234.13,184.69L234.45,185.01L234.45,186.60L234.77,186.92L234.77,188.52L235.09,188.84L235.09,191.07L235.41,191.39L235.41,193.30L235.73,193.62L235.73,195.53L236.04,195.85L236.04,198.41L236.36,198.72L236.36,200.96L236.68,201.28L236.68,203.51L237.00,203.83L237.00,205.74L237.32,206.06L237.32,207.97L237.64,208.29L237.64,211.16L237.96,211.48L237.96,213.72L238.28,214.04L238.28,216.27L238.60,216.59L238.60,219.78L238.92,220.10L238.92,222.97L239.23,223.29L239.23,225.52L239.55,225.84L239.55,228.39L239.87,228.71L239.87,232.54L240.19,232.85L240.19,233.49L246.57,233.49L246.89,233.17L246.57,232.85L246.57,229.35L246.25,229.03L246.25,224.56L245.93,224.24L245.93,220.73L245.61,220.41L245.61,217.54L245.30,217.22L245.30,213.40L244.98,213.08L244.98,210.21L244.66,209.89L244.66,206.38L244.34,206.06L244.34,202.23L244.02,201.91L244.02,198.72L243.70,198.41L243.70,194.26L243.38,193.94L243.38,188.84L243.06,188.52L243.06,184.69L242.74,184.37L242.74,179.59L242.42,179.27L242.42,175.76L242.11,175.44L242.11,171.93L241.79,171.61L241.79,168.42L241.15,168.42L240.83,168.10Z M278.79,158.53L278.47,158.85L277.83,158.85L277.51,159.17L276.87,159.17L276.56,159.49L276.24,159.49L275.92,159.81L275.28,159.81L274.96,160.13L274.32,160.13L274.00,160.45L273.68,160.45L273.37,160.77L272.73,160.77L272.41,161.08L272.09,161.08L271.77,161.40L271.13,161.40L270.81,161.72L270.18,161.72L269.86,162.04L269.22,162.04L268.90,162.36L268.58,162.36L268.26,162.68L267.62,162.68L267.30,163.00L266.67,163.00L266.35,163.32L266.03,163.32L265.71,163.64L265.07,163.64L264.75,163.96L264.11,163.96L264.11,165.23L264.43,165.55L264.43,166.83L264.75,167.15L264.75,168.42L265.07,168.74L265.07,170.02L265.39,170.33L265.39,171.61L265.71,171.93L265.71,173.52L266.03,173.84L266.03,175.12L266.35,175.44L266.35,177.03L266.67,177.35L266.67,178.95L266.99,179.27L266.99,180.86L267.30,181.18L267.30,182.78L267.62,183.09L267.62,184.37L267.94,184.69L267.94,185.96L268.26,186.28L268.26,188.20L268.58,188.52L268.58,189.79L268.90,190.11L268.90,192.03L269.22,192.34L269.22,193.94L269.54,194.26L269.54,195.85L269.86,196.17L269.86,198.09L270.18,198.41L270.18,200.00L270.49,200.32L270.49,202.23L270.81,202.55L270.81,204.78L271.13,205.10L271.13,207.02L271.45,207.34L271.45,209.57L271.77,209.89L271.77,212.44L272.09,212.76L272.09,215.31L272.41,215.63L272.41,218.18L272.73,218.50L272.73,220.73L273.05,221.05L273.05,224.24L273.37,224.56L273.37,228.07L273.68,228.39L273.68,231.90L274.00,232.22L274.00,236.04L274.32,236.36L274.32,242.11L274.64,242.42L274.64,243.06L279.11,243.06L279.43,242.74L283.89,242.74L284.21,242.42L286.12,242.42L286.44,242.11L288.36,242.11L288.68,241.79L290.27,241.79L290.59,241.47L292.19,241.47L292.50,241.15L293.78,241.15L294.10,240.83L295.37,240.83L295.69,240.51L296.65,240.51L296.97,240.19L297.93,240.19L298.25,239.87L299.20,239.87L299.52,239.55L300.16,239.55L300.48,239.23L301.12,239.23L301.44,238.92L302.07,238.92L302.39,238.60L303.03,238.60L303.35,238.28L303.99,238.28L304.31,237.96L304.63,237.96L304.94,237.64L305.58,237.64L305.90,237.32L306.22,237.32L306.54,237.00L306.86,237.00L307.18,236.68L307.50,236.68L307.81,236.36L308.13,236.36L308.45,236.04L308.77,236.04L309.09,235.73L309.41,235.73L309.73,235.41L310.05,235.41L310.37,235.09L310.69,235.09L311.00,234.77L311.32,234.77L311.96,234.13L312.28,234.13L313.24,233.17L313.56,233.17L316.43,230.30L316.43,229.98L317.07,229.35L317.07,229.03L317.38,228.71L317.38,228.39L317.70,228.07L317.70,227.43L318.02,227.11L318.02,226.16L318.34,225.84L318.34,223.29L318.02,222.97L318.02,222.33L317.70,222.01L317.70,221.69L317.38,221.37L317.38,221.05L316.11,219.78L315.79,219.78L314.83,218.82L314.51,218.82L314.19,218.50L313.88,218.50L313.24,217.86L312.92,217.86L312.60,217.54L312.28,217.54L311.96,217.22L311.64,217.22L311.32,216.91L311.00,216.91L310.69,216.59L310.37,216.59L310.05,216.27L309.73,216.27L309.41,215.95L308.77,215.95L308.45,215.63L307.81,215.63L307.50,215.31L306.86,215.31L306.54,214.99L305.90,214.99L305.58,214.67L304.94,214.67L304.63,214.35L303.99,214.35L303.67,214.04L303.03,214.04L302.71,213.72L301.75,213.72L301.44,213.40L300.48,213.40L300.16,213.08L298.88,213.08L298.56,212.76L297.29,212.76L296.97,212.44L295.37,212.44L295.06,212.12L293.14,212.12L292.82,211.80L289.63,211.80L289.31,211.48L283.57,211.48L283.25,211.80L281.34,211.80L281.02,211.48L281.02,210.53L280.70,210.21L280.70,208.93L280.38,208.61L280.38,207.02L280.06,206.70L280.06,203.51L279.74,203.19L279.74,200.00L279.43,199.68L279.43,193.94L279.11,193.62L279.11,158.53Z M287.40,220.73L287.72,220.41L289.00,220.41L289.31,220.73L289.95,220.73L290.27,221.05L290.91,221.05L291.23,221.37L291.87,221.37L292.19,221.69L292.50,221.69L292.82,222.01L293.46,222.01L293.78,222.33L294.10,222.33L294.42,222.65L295.06,222.65L295.37,222.97L295.69,222.97L296.01,223.29L296.65,223.29L296.97,223.60L297.29,223.60L297.61,223.92L298.25,223.92L298.56,224.24L298.88,224.24L299.20,224.56L299.52,224.56L299.84,224.88L300.48,224.88L300.80,225.20L301.12,225.20L301.44,225.52L301.75,225.52L302.07,225.84L300.80,227.11L300.48,227.11L299.52,228.07L299.20,228.07L298.25,229.03L297.93,229.03L296.97,229.98L296.65,229.98L295.69,230.94L295.37,230.94L294.42,231.90L294.10,231.90L293.14,232.85L292.82,232.85L291.87,233.81L291.55,233.81L290.91,234.45L290.59,234.45L289.95,235.09L289.63,234.77L289.63,234.45L289.31,234.13L289.31,231.90L289.00,231.58L289.00,229.67L288.68,229.35L288.68,227.43L288.36,227.11L288.36,225.20L288.04,224.88L288.04,223.29L287.72,222.97L287.72,221.37L287.40,221.05Z M181.18,158.53L180.86,158.85L180.54,158.85L180.22,159.17L179.59,159.17L179.27,159.49L178.63,159.49L178.31,159.81L177.99,159.81L177.67,160.13L177.03,160.13L176.71,160.45L176.40,160.45L176.08,160.77L175.44,160.77L175.12,161.08L174.48,161.08L174.16,161.40L173.52,161.40L173.21,161.72L172.89,161.72L172.57,162.04L171.93,162.04L171.61,162.36L170.97,162.36L170.65,162.68L170.33,162.68L170.02,163.00L169.38,163.00L169.06,163.32L168.42,163.32L168.10,163.64L167.46,163.64L167.15,163.96L166.83,163.96L166.83,164.27L167.15,164.59L167.15,165.87L167.46,166.19L167.46,167.46L167.78,167.78L167.78,169.06L168.10,169.38L168.10,170.65L168.42,170.97L168.42,172.25L168.74,172.57L168.74,174.16L169.06,174.48L169.06,175.76L169.38,176.08L169.38,177.67L169.70,177.99L169.70,179.59L170.02,179.90L170.02,181.18L170.33,181.50L170.33,183.09L170.65,183.41L170.65,185.01L170.97,185.33L170.97,186.92L171.29,187.24L171.29,189.15L171.61,189.47L171.61,191.07L171.93,191.39L171.93,192.98L172.25,193.30L172.25,195.22L172.57,195.53L172.57,197.13L172.89,197.45L172.89,199.36L173.21,199.68L173.21,201.59L173.52,201.91L173.52,203.51L173.84,203.83L173.84,206.06L174.16,206.38L174.16,208.61L174.48,208.93L174.48,211.16L174.80,211.48L174.80,214.04L175.12,214.35L175.12,216.91L175.44,217.22L175.44,219.46L175.76,219.78L175.76,223.60L176.08,223.92L176.08,227.11L176.40,227.43L176.40,230.62L176.71,230.94L176.71,236.04L177.03,236.36L177.03,240.19L177.35,240.51L177.35,243.06L181.82,243.06L182.14,242.74L186.28,242.74L186.60,242.42L188.84,242.42L189.15,242.11L191.07,242.11L191.39,241.79L192.98,241.79L193.30,241.47L194.90,241.47L195.22,241.15L196.49,241.15L196.81,240.83L198.09,240.83L198.41,240.51L199.36,240.51L199.68,240.19L200.64,240.19L200.96,239.87L201.91,239.87L202.23,239.55L202.87,239.55L203.19,239.23L203.83,239.23L204.15,238.92L204.78,238.92L205.10,238.60L205.74,238.60L206.06,238.28L206.70,238.28L207.02,237.96L207.66,237.96L207.97,237.64L208.29,237.64L208.61,237.32L209.25,237.32L209.57,237.00L209.89,237.00L210.21,236.68L210.53,236.68L210.85,236.36L211.16,236.36L211.48,236.04L211.80,236.04L212.12,235.73L212.44,235.73L212.76,235.41L213.08,235.41L213.40,235.09L213.72,235.09L214.35,234.45L214.67,234.45L215.31,233.81L215.63,233.81L216.27,233.17L216.59,233.17L219.46,230.30L219.46,229.98L220.10,229.35L220.10,229.03L220.41,228.71L220.41,228.39L220.73,228.07L220.73,227.75L221.05,227.43L221.05,226.79L221.37,226.48L221.37,222.97L221.05,222.65L221.05,222.01L220.73,221.69L220.73,221.37L218.50,219.14L218.18,219.14L217.54,218.50L217.22,218.50L216.91,218.18L216.59,218.18L215.95,217.54L215.63,217.54L215.31,217.22L214.99,217.22L214.67,216.91L214.35,216.91L214.04,216.59L213.72,216.59L213.40,216.27L212.76,216.27L212.44,215.95L212.12,215.95L211.80,215.63L211.16,215.63L210.85,215.31L210.21,215.31L209.89,214.99L209.25,214.99L208.93,214.67L208.29,214.67L207.97,214.35L207.02,214.35L206.70,214.04L206.06,214.04L205.74,213.72L204.78,213.72L204.47,213.40L203.51,213.40L203.19,213.08L201.91,213.08L201.59,212.76L200.32,212.76L200.00,212.44L198.72,212.44L198.41,212.12L196.49,212.12L196.17,211.80L192.98,211.80L192.66,211.48L185.96,211.48L185.65,211.80L184.05,211.80L183.73,211.48L183.73,210.53L183.41,210.21L183.41,208.29L183.09,207.97L183.09,206.06L182.78,205.74L182.78,203.83L182.46,203.51L182.46,200.00L182.14,199.68L182.14,193.94L181.82,193.62L181.82,185.65L181.50,185.33L181.50,164.59L181.82,164.27L181.82,158.53Z M190.43,220.41L190.75,220.10L191.07,220.10L191.39,220.41L192.03,220.41L192.34,220.73L192.98,220.73L193.30,221.05L193.94,221.05L194.26,221.37L194.90,221.37L195.22,221.69L195.53,221.69L195.85,222.01L196.49,222.01L196.81,222.33L197.13,222.33L197.45,222.65L198.09,222.65L198.41,222.97L198.72,222.97L199.04,223.29L199.68,223.29L200.00,223.60L200.32,223.60L200.64,223.92L201.28,223.92L201.59,224.24L201.91,224.24L202.23,224.56L202.55,224.56L202.87,224.88L203.51,224.88L203.83,225.20L204.15,225.20L204.47,225.52L204.78,225.52L205.10,225.84L205.10,226.16L204.78,226.48L204.47,226.48L203.51,227.43L203.19,227.43L202.55,228.07L202.23,228.07L201.28,229.03L200.96,229.03L200.00,229.98L199.68,229.98L199.04,230.62L198.72,230.62L197.77,231.58L197.45,231.58L196.49,232.54L196.17,232.54L195.22,233.49L194.90,233.49L193.94,234.45L193.62,234.45L192.98,235.09L192.66,235.09L192.34,234.77L192.34,233.81L192.03,233.49L192.03,230.94L191.71,230.62L191.71,228.71L191.39,228.39L191.39,226.48L191.07,226.16L191.07,224.56L190.75,224.24L190.75,222.33L190.43,222.01Z M77.51,148.96L77.19,149.28L76.87,149.28L75.28,150.88L75.28,151.20L74.96,151.52L74.96,153.43L75.28,153.75L75.28,154.07L79.74,158.53L80.06,158.53L84.21,162.68L84.21,163.00L83.89,163.32L62.52,163.32L62.20,163.64L60.61,163.64L60.29,163.96L59.65,163.96L59.33,164.27L59.01,164.27L58.69,164.59L58.05,164.59L57.74,164.91L57.42,164.91L56.78,165.55L56.46,165.55L55.82,166.19L55.50,166.19L54.55,167.15L54.23,167.15L53.27,168.10L53.27,168.42L51.99,169.70L51.99,170.02L51.36,170.65L51.36,170.97L51.04,171.29L51.04,171.61L50.72,171.93L50.72,172.25L50.40,172.57L50.40,173.21L50.08,173.52L50.08,174.16L49.76,174.48L49.76,175.44L49.44,175.76L49.44,177.35L49.12,177.67L49.12,226.16L49.44,226.48L49.44,227.75L49.76,228.07L49.76,229.03L50.08,229.35L50.08,229.98L50.40,230.30L50.40,230.62L50.72,230.94L50.72,231.58L51.04,231.90L51.04,232.22L51.36,232.54L51.36,232.85L51.99,233.49L51.99,233.81L52.31,234.13L52.31,234.45L56.14,238.28L56.46,238.28L57.10,238.92L57.42,238.92L57.74,239.23L58.05,239.23L58.37,239.55L58.69,239.55L59.01,239.87L59.65,239.87L59.97,240.19L60.93,240.19L61.24,240.51L68.90,240.51L69.54,241.15L69.54,242.11L69.86,242.42L69.86,243.06L70.18,243.38L70.18,243.70L70.49,244.02L70.49,244.34L71.77,245.61L72.09,245.61L72.41,245.93L72.73,245.93L73.05,246.25L73.68,246.25L74.00,246.57L75.92,246.57L76.24,246.25L76.87,246.25L77.19,245.93L77.51,245.93L77.83,245.61L78.15,245.61L79.43,244.34L79.43,244.02L79.74,243.70L79.74,243.38L80.06,243.06L80.06,242.42L80.38,242.11L80.38,241.15L81.02,240.51L120.57,240.51L121.21,241.15L121.21,242.42L121.53,242.74L121.53,243.06L121.85,243.38L121.85,243.70L122.17,244.02L122.17,244.34L123.76,245.93L124.08,245.93L124.40,246.25L125.36,246.25L125.68,246.57L127.59,246.57L127.91,246.25L128.55,246.25L128.87,245.93L129.19,245.93L129.51,245.61L129.82,245.61L131.42,244.02L131.42,243.70L131.74,243.38L131.74,242.74L132.06,242.42L132.06,241.47L132.38,241.15L132.38,240.83L132.70,240.51L139.71,240.51L140.03,240.19L140.99,240.19L141.31,239.87L141.95,239.87L142.26,239.55L142.90,239.55L143.54,238.92L143.86,238.92L144.18,238.60L144.50,238.60L145.14,237.96L145.45,237.96L148.33,235.09L148.33,234.77L148.96,234.13L148.96,233.81L149.60,233.17L149.60,232.85L149.92,232.54L149.92,232.22L150.24,231.90L150.24,231.26L150.56,230.94L150.56,230.62L150.88,230.30L150.88,229.67L151.20,229.35L151.20,228.39L151.52,228.07L151.52,226.79L151.83,226.48L151.83,177.67L151.52,177.35L151.52,175.76L151.20,175.44L151.20,174.80L150.88,174.48L150.88,173.84L150.56,173.52L150.56,172.89L150.24,172.57L150.24,172.25L149.92,171.93L149.92,171.61L149.60,171.29L149.60,170.97L148.96,170.33L148.96,170.02L148.01,169.06L148.01,168.74L145.77,166.51L145.45,166.51L144.50,165.55L144.18,165.55L143.86,165.23L143.54,165.23L142.90,164.59L142.58,164.59L142.26,164.27L141.63,164.27L141.31,163.96L140.67,163.96L140.35,163.64L139.07,163.64L138.76,163.32L117.07,163.32L116.75,163.00L116.75,162.68L117.07,162.36L117.38,162.36L125.68,154.07L125.68,153.75L126.00,153.43L126.00,151.52L125.68,151.20L125.68,150.88L124.40,149.60L124.08,149.60L123.76,149.28L123.44,149.28L123.13,148.96L122.49,148.96L122.17,149.28L121.53,149.28L114.19,156.62L113.88,156.62L112.92,157.58L112.92,157.89L111.32,159.49L111.00,159.49L110.69,159.81L110.69,160.13L109.41,161.40L109.09,161.40L107.18,163.32L93.78,163.32L79.74,149.28L79.11,149.28L78.79,148.96Z M62.84,173.84L63.16,173.52L138.12,173.52L138.44,173.84L139.07,173.84L139.39,174.16L139.71,174.16L140.99,175.44L140.99,175.76L141.31,176.08L141.31,176.40L141.63,176.71L141.63,227.75L141.31,228.07L141.31,228.39L140.99,228.71L140.99,229.03L139.71,230.30L139.39,230.30L139.07,230.62L138.12,230.62L137.80,230.94L63.48,230.94L63.16,230.62L62.52,230.62L62.20,230.30L61.88,230.30L60.61,229.03L60.61,228.71L60.29,228.39L60.29,228.07L59.97,227.75L59.97,176.71L60.29,176.40L60.29,176.08L60.61,175.76L60.61,175.44L61.88,174.16L62.20,174.16L62.52,173.84Z M101.12,209.57L100.80,209.89L100.80,210.21L100.16,210.85L100.16,211.16L99.84,211.48L99.84,211.80L99.20,212.44L99.20,212.76L97.61,214.35L97.29,214.35L96.65,214.99L94.42,214.99L94.10,214.67L93.78,214.67L93.46,214.35L93.14,214.35L91.55,212.76L91.55,212.44L90.91,211.80L90.59,211.80L89.63,212.76L89.31,212.76L88.36,213.72L88.04,213.72L87.72,214.04L87.72,214.35L90.59,217.22L90.91,217.22L91.55,217.86L91.87,217.86L92.19,218.18L92.50,218.18L92.82,218.50L93.46,218.50L93.78,218.82L97.29,218.82L97.61,218.50L98.25,218.50L98.56,218.18L98.88,218.18L99.52,217.54L99.84,217.54L101.12,216.27L101.44,216.27L102.71,217.54L103.03,217.54L103.67,218.18L103.99,218.18L104.31,218.50L104.94,218.50L105.26,218.82L108.77,218.82L109.09,218.50L109.73,218.50L110.05,218.18L110.37,218.18L110.69,217.86L111.00,217.86L111.32,217.54L111.64,217.54L114.83,214.35L114.83,214.04L114.51,213.72L114.19,213.72L113.56,213.08L113.24,213.08L112.28,212.12L111.96,212.12L111.64,211.80L111.32,212.12L111.32,212.44L109.41,214.35L109.09,214.35L108.77,214.67L108.45,214.67L108.13,214.99L105.90,214.99L105.58,214.67L105.26,214.67L104.63,214.04L104.31,214.04L103.03,212.76L103.03,212.44L102.39,211.80L102.39,211.48L102.07,211.16L102.07,210.85L101.44,210.21L101.44,209.89Z M113.56,187.56L113.56,187.88L113.24,188.20L113.24,189.79L112.92,190.11L112.92,191.39L112.60,191.71L112.60,192.98L112.28,193.30L112.28,194.58L111.96,194.90L111.96,195.53L112.92,195.53L113.24,195.85L114.51,195.85L114.83,196.17L116.11,196.17L116.43,196.49L117.70,196.49L118.02,196.81L119.30,196.81L119.62,197.13L120.89,197.13L121.21,197.45L122.49,197.45L122.81,197.77L124.08,197.77L124.40,198.09L125.68,198.09L126.00,198.41L127.27,198.41L127.59,198.72L128.55,198.72L128.87,199.04L130.14,199.04L130.46,199.36L131.74,199.36L132.06,199.68L133.01,199.68L133.01,199.36L133.33,199.04L133.33,197.45L133.65,197.13L133.65,195.85L133.97,195.53L133.97,194.58L134.29,194.26L134.29,192.98L134.61,192.66L134.61,191.71L133.65,191.71L133.33,191.39L132.06,191.39L131.74,191.07L130.46,191.07L130.14,190.75L128.87,190.75L128.55,190.43L127.27,190.43L126.95,190.11L125.68,190.11L125.36,189.79L123.76,189.79L123.44,189.47L122.17,189.47L121.85,189.15L120.57,189.15L120.26,188.84L118.98,188.84L118.66,188.52L117.38,188.52L117.07,188.20L115.79,188.20L115.47,187.88L114.19,187.88L113.88,187.56Z M89.00,187.56L88.68,187.88L87.72,187.88L87.40,188.20L86.12,188.20L85.81,188.52L84.53,188.52L84.21,188.84L82.93,188.84L82.62,189.15L81.34,189.15L81.02,189.47L79.43,189.47L79.11,189.79L77.83,189.79L77.51,190.11L76.24,190.11L75.92,190.43L74.32,190.43L74.00,190.75L72.73,190.75L72.41,191.07L71.13,191.07L70.81,191.39L69.86,191.39L69.54,191.71L67.94,191.71L67.94,192.34L68.26,192.66L68.26,193.94L68.58,194.26L68.58,195.22L68.90,195.53L68.90,196.81L69.22,197.13L69.22,198.41L69.54,198.72L69.54,199.68L70.81,199.68L71.13,199.36L72.41,199.36L72.73,199.04L73.68,199.04L74.00,198.72L75.28,198.72L75.60,198.41L76.87,198.41L77.19,198.09L78.47,198.09L78.79,197.77L80.06,197.77L80.38,197.45L81.66,197.45L81.98,197.13L83.25,197.13L83.57,196.81L84.85,196.81L85.17,196.49L86.44,196.49L86.76,196.17L87.72,196.17L88.04,195.85L89.63,195.85L89.95,195.53L90.59,195.53L90.59,193.94L90.27,193.62L90.27,192.34L89.95,192.03L89.95,191.07L89.63,190.75L89.63,189.47L89.31,189.15L89.31,187.88Z" fill="currentColor" fill-rule="evenodd"/>
</svg>