<svg xmlns="http://www.w3.org/2000/svg" viewBox="0 0 400 400" class="logo-xiaohongshu" style="width:100%;height:100%;">
  <!-- 小红书 Logo SVG -->
  <!-- 使用 evenodd 填充规则自动处理内部孔洞 -->
  <path d="M156.30,228.71L156.30,229.03L155.66,229.67L155.66,229.98L155.34,230.30L155.34,230.62L155.02,230.94L155.02,231.26L154.70,231.58L154.70,231.90L154.39,232.22L154.39,232.54L154.07,232.85L154.07,233.17L153.75,233.49L153.75,233.81L153.43,234.13L153.43,234.45L153.11,234.77L153.11,235.09L152.79,235.41L152.79,235.73L152.47,236.04L152.47,236.36L151.83,237.00L151.83,237.32L151.52,237.64L151.52,237.96L151.20,238.28L151.20,238.60L150.88,238.92L150.88,239.23L150.56,239.55L150.56,239.87L150.24,240.19L150.24,240.51L149.92,240.83L149.92,241.15L149.60,241.47L149.60,241.79L149.28,242.11L149.28,242.42L148.96,242.74L148.96,243.06L148.64,243.38L148.64,243.70L148.33,244.02L148.33,244.34L148.01,244.66L148.01,244.98L147.69,245.30L147.69,245.61L147.37,245.93L147.37,246.25L147.05,246.57L147.05,246.89L146.73,247.21L146.73,247.53L146.41,247.85L146.41,248.17L146.09,248.48L146.09,248.80L145.77,249.12L145.77,249.44L145.45,249.76L145.45,250.40L145.77,250.40L146.09,250.72L147.05,250.72L147.37,251.04L148.01,251.04L148.33,251.36L150.24,251.36L150.56,251.67L177.67,251.67L178.31,251.04L178.31,250.72L178.63,250.40L178.63,250.08L178.95,249.76L178.95,249.44L179.27,249.12L179.27,248.80L179.59,248.48L179.59,248.17L179.90,247.85L179.90,247.53L180.22,247.21L180.22,246.89L180.54,246.57L180.54,246.25L180.86,245.93L180.86,245.61L181.18,245.30L181.18,244.98L181.50,244.66L181.50,244.34L181.82,244.02L181.82,243.70L182.14,243.38L182.14,243.06L182.46,242.74L182.46,242.42L182.78,242.11L182.78,241.79L183.09,241.47L183.09,241.15L183.41,240.83L183.41,240.51L183.73,240.19L183.73,239.87L184.05,239.55L184.05,239.23L184.37,238.92L184.37,238.60L184.69,238.28L184.69,237.96L185.01,237.64L185.01,237.32L185.33,237.00L185.33,236.68L185.65,236.36L185.65,236.04L185.96,235.73L185.96,235.41L186.28,235.09L186.28,234.77L186.60,234.45L186.60,234.13L186.92,233.81L186.92,233.49L187.24,233.17L187.24,232.85L187.56,232.54L187.56,232.22L187.88,231.90L187.88,231.58L188.52,230.94L165.87,230.94L165.55,230.62L163.00,230.62L162.68,230.30L161.40,230.30L161.08,229.98L159.81,229.98L159.49,229.67L158.85,229.67L158.53,229.35L157.89,229.35L157.58,229.03L157.26,229.03L156.94,228.71Z M117.70,165.87L118.02,166.19L118.02,170.33L118.34,170.65L118.34,174.48L118.66,174.80L118.66,178.31L118.98,178.63L118.98,182.14L119.30,182.46L119.30,185.96L119.62,186.28L119.62,190.11L119.94,190.43L119.94,194.26L120.26,194.58L120.26,198.09L120.57,198.41L120.57,201.91L120.89,202.23L120.89,205.74L121.21,206.06L121.21,208.93L121.53,209.25L121.53,211.48L121.85,211.80L121.85,213.72L122.17,214.04L122.17,215.31L122.49,215.63L122.49,217.22L122.81,217.54L122.81,218.50L123.13,218.82L123.13,220.10L123.44,220.41L123.44,221.37L123.76,221.69L123.76,222.65L124.08,222.97L124.08,223.60L124.40,223.92L124.40,224.56L124.72,224.88L124.72,225.52L125.04,225.84L125.04,226.48L125.36,226.79L125.36,227.43L125.68,227.75L125.68,228.39L126.00,228.71L126.00,229.03L126.32,229.35L126.32,229.98L126.63,230.30L126.63,230.62L126.95,230.94L126.95,231.26L127.27,231.58L127.27,231.90L127.59,232.22L127.59,232.85L127.91,233.17L127.91,233.49L128.23,233.81L128.23,234.13L128.55,234.45L128.55,234.77L129.19,235.41L129.19,235.73L129.51,236.04L129.51,236.36L129.82,236.68L129.82,237.00L130.46,237.64L130.46,237.96L131.10,238.60L131.10,238.92L131.74,239.55L131.74,239.87L132.70,240.83L132.70,241.15L133.01,241.47L133.01,241.15L133.33,240.83L133.33,240.51L133.65,240.19L133.65,239.87L133.97,239.55L133.97,239.23L134.29,238.92L134.29,238.60L134.61,238.28L134.61,237.96L134.93,237.64L134.93,237.32L135.25,237.00L135.25,236.68L135.57,236.36L135.57,236.04L135.89,235.73L135.89,235.41L136.20,235.09L136.20,234.77L136.52,234.45L136.52,234.13L136.84,233.81L136.84,233.49L137.16,233.17L137.16,232.85L137.48,232.54L137.48,232.22L137.80,231.90L137.80,231.58L138.12,231.26L138.12,230.94L138.44,230.62L138.44,230.30L138.76,229.98L138.76,229.67L139.07,229.35L139.07,229.03L139.39,228.71L139.39,228.39L139.71,228.07L139.71,227.75L140.03,227.43L140.03,227.11L140.35,226.79L140.35,226.48L140.67,226.16L140.67,225.84L140.99,225.52L140.99,225.20L141.31,224.88L141.31,224.56L141.63,224.24L141.63,223.92L141.95,223.60L141.95,223.29L142.58,222.65L142.58,222.33L142.90,222.01L142.90,221.69L143.22,221.37L143.22,221.05L143.54,220.73L143.54,220.41L143.86,220.10L143.86,219.78L144.18,219.46L144.18,219.14L144.50,218.82L144.50,218.50L144.82,218.18L144.50,217.86L144.50,217.54L144.18,217.22L144.18,216.91L143.86,216.59L143.86,216.27L143.54,215.95L143.54,215.31L143.22,214.99L143.22,214.35L142.90,214.04L142.90,213.08L142.58,212.76L142.58,211.48L142.26,211.16L142.26,209.25L141.95,208.93L141.95,205.42L141.63,205.10L141.63,201.28L141.31,200.96L141.31,197.13L140.99,196.81L140.99,192.98L140.67,192.66L140.67,188.84L140.35,188.52L140.35,184.69L140.03,184.37L140.03,180.54L139.71,180.22L139.71,176.40L139.39,176.08L139.39,171.93L139.07,171.61L139.07,167.46L138.76,167.15L138.76,165.87Z M45.30,165.87L45.30,166.83L44.98,167.15L44.98,170.97L44.66,171.29L44.66,174.80L44.34,175.12L44.34,178.63L44.02,178.95L44.02,182.78L43.70,183.09L43.70,186.60L43.38,186.92L43.38,190.11L43.06,190.43L43.06,194.26L42.74,194.58L42.74,198.41L42.42,198.72L42.42,202.23L42.11,202.55L42.11,205.74L41.79,206.06L41.79,209.57L41.47,209.89L41.47,211.80L41.15,212.12L41.15,213.08L40.83,213.40L40.83,214.04L40.51,214.35L40.51,214.99L40.19,215.31L40.19,215.63L39.87,215.95L39.87,216.27L39.55,216.59L39.55,216.91L39.23,217.22L39.23,217.54L38.92,217.86L38.92,218.18L39.23,218.50L39.23,219.14L39.87,219.78L39.87,220.10L40.19,220.41L40.19,220.73L40.51,221.05L40.51,221.37L40.83,221.69L40.83,222.01L41.15,222.33L41.15,222.65L41.47,222.97L41.47,223.29L41.79,223.60L41.79,223.92L42.42,224.56L42.42,224.88L42.74,225.20L42.74,225.52L43.06,225.84L43.06,226.16L43.38,226.48L43.38,226.79L43.70,227.11L43.70,227.43L44.02,227.75L44.02,228.07L44.34,228.39L44.34,228.71L44.66,229.03L44.66,229.35L45.30,229.98L45.30,230.30L45.61,230.62L45.61,230.94L45.93,231.26L45.93,231.58L46.25,231.90L46.25,232.22L46.57,232.54L46.57,232.85L46.89,233.17L46.89,233.49L47.21,233.81L47.21,234.13L47.53,234.45L47.53,234.77L47.85,235.09L47.85,235.41L48.17,235.73L48.17,236.04L48.48,236.36L48.48,236.68L48.80,237.00L48.80,237.32L49.12,237.64L49.12,237.96L49.44,238.28L49.44,238.60L49.76,238.92L49.76,239.23L50.08,239.55L50.08,239.87L50.40,240.19L50.40,240.51L50.72,240.83L50.72,241.15L51.04,241.47L51.04,241.15L51.99,240.19L51.99,239.87L52.95,238.92L52.95,238.60L53.59,237.96L53.59,237.64L53.91,237.32L53.91,237.00L54.55,236.36L54.55,236.04L55.18,235.41L55.18,235.09L55.50,234.77L55.50,234.45L55.82,234.13L55.82,233.81L56.14,233.49L56.14,233.17L56.46,232.85L56.46,232.54L56.78,232.22L56.78,231.90L57.10,231.58L57.10,231.26L57.42,230.94L57.42,230.62L57.74,230.30L57.74,229.98L58.05,229.67L58.05,229.03L58.37,228.71L58.37,228.39L58.69,228.07L58.69,227.43L59.01,227.11L59.01,226.79L59.33,226.48L59.33,225.84L59.65,225.52L59.65,225.20L59.97,224.88L59.97,224.24L60.29,223.92L60.29,223.29L60.61,222.97L60.61,222.01L60.93,221.69L60.93,221.05L61.24,220.73L61.24,219.78L61.56,219.46L61.56,218.50L61.88,218.18L61.88,217.22L62.20,216.91L62.20,215.63L62.52,215.31L62.52,213.72L62.84,213.40L62.84,212.12L63.16,211.80L63.16,209.89L63.48,209.57L63.48,206.70L63.80,206.38L63.80,203.19L64.11,202.87L64.11,199.36L64.43,199.04L64.43,195.53L64.75,195.22L64.75,191.39L65.07,191.07L65.07,187.88L65.39,187.56L65.39,183.73L65.71,183.41L65.71,179.90L66.03,179.59L66.03,176.08L66.35,175.76L66.35,171.61L66.67,171.29L66.67,167.78L66.99,167.46L66.99,165.87Z M207.34,144.18L207.34,164.91L221.05,164.91L221.69,165.55L221.69,230.30L221.05,230.94L199.68,230.94L199.36,231.26L199.36,231.58L199.04,231.90L199.04,232.22L198.72,232.54L198.72,232.85L198.41,233.17L198.41,233.49L198.09,233.81L198.09,234.13L197.77,234.45L197.77,234.77L197.45,235.09L197.45,235.41L197.13,235.73L197.13,236.04L196.81,236.36L196.81,236.68L196.49,237.00L196.49,237.32L196.17,237.64L196.17,237.96L195.85,238.28L195.85,238.60L195.53,238.92L195.53,239.23L195.22,239.55L195.22,239.87L194.90,240.19L194.90,240.51L194.58,240.83L194.58,241.15L194.26,241.47L194.26,241.79L193.94,242.11L193.94,242.42L193.62,242.74L193.62,243.06L193.30,243.38L193.30,243.70L192.98,244.02L192.98,244.34L192.66,244.66L192.66,244.98L192.34,245.30L192.34,245.93L191.71,246.57L191.71,247.21L191.39,247.53L191.39,247.85L191.07,248.17L191.07,248.48L190.43,249.12L190.43,249.44L190.11,249.76L190.11,250.40L189.79,250.72L189.79,251.04L189.47,251.36L189.47,251.67L263.80,251.67L263.80,230.94L243.06,230.94L242.42,230.30L242.42,165.55L243.06,164.91L256.78,164.91L256.78,144.18Z M352.79,143.86L352.47,144.18L351.20,144.18L350.88,144.50L350.24,144.50L349.92,144.82L349.60,144.82L349.28,145.14L348.96,145.14L348.64,145.45L348.33,145.45L348.01,145.77L347.69,145.77L345.14,148.33L345.14,148.64L344.50,149.28L344.50,149.60L344.18,149.92L344.18,150.56L343.86,150.88L343.86,151.52L343.54,151.83L343.54,153.11L343.22,153.43L343.22,164.91L355.66,164.91L355.98,164.59L356.94,164.59L357.26,164.27L357.58,164.27L357.89,163.96L358.53,163.96L359.17,163.32L359.49,163.32L360.13,162.68L360.45,162.68L361.72,161.40L361.72,161.08L362.68,160.13L362.68,159.81L363.00,159.49L363.00,159.17L363.32,158.85L363.32,158.53L363.64,158.21L363.64,157.26L363.96,156.94L363.96,155.66L364.27,155.34L364.27,152.79L363.96,152.47L363.96,151.52L363.64,151.20L363.64,150.56L363.32,150.24L363.32,149.60L363.00,149.28L363.00,148.96L362.36,148.33L362.36,148.01L360.13,145.77L359.81,145.77L359.49,145.45L359.17,145.45L358.85,145.14L358.53,145.14L358.21,144.82L357.89,144.82L357.58,144.50L356.94,144.50L356.62,144.18L355.34,144.18L355.02,143.86Z M286.12,136.84L286.12,143.86L285.81,144.18L271.77,144.18L271.77,164.91L285.49,164.91L286.12,165.55L286.12,183.41L285.81,183.73L264.43,183.73L264.43,204.47L285.49,204.47L286.12,205.10L286.12,251.67L306.54,251.67L306.54,205.10L307.18,204.47L336.52,204.47L336.84,204.78L338.12,204.78L338.44,205.10L339.07,205.10L339.39,205.42L339.71,205.42L340.35,206.06L340.67,206.06L341.95,207.34L341.95,207.66L342.58,208.29L342.58,208.61L342.90,208.93L342.90,209.57L343.22,209.89L343.22,233.49L342.90,233.81L321.85,233.81L321.85,235.09L322.17,235.41L322.17,237.00L322.49,237.32L322.49,238.28L322.81,238.60L322.81,239.23L323.13,239.55L323.13,240.19L323.44,240.51L323.44,240.83L323.76,241.15L323.76,241.47L324.08,241.79L324.08,242.11L324.40,242.42L324.40,242.74L325.04,243.38L325.04,243.70L325.68,244.34L325.68,244.66L328.55,247.53L328.87,247.53L329.82,248.48L330.14,248.48L330.78,249.12L331.10,249.12L331.42,249.44L331.74,249.44L332.06,249.76L332.38,249.76L332.70,250.08L333.33,250.08L333.65,250.40L334.29,250.40L334.61,250.72L335.57,250.72L335.89,251.04L336.84,251.04L337.16,251.36L339.39,251.36L339.71,251.67L345.77,251.67L346.09,251.36L348.64,251.36L348.96,251.04L349.92,251.04L350.24,250.72L351.20,250.72L351.52,250.40L352.15,250.40L352.47,250.08L353.11,250.08L353.43,249.76L353.75,249.76L354.07,249.44L354.39,249.44L355.02,248.80L355.34,248.80L355.66,248.48L355.98,248.48L356.62,247.85L356.94,247.85L358.21,246.57L358.53,246.57L359.49,245.61L359.49,245.30L360.77,244.02L360.77,243.70L361.40,243.06L361.40,242.74L361.72,242.42L361.72,242.11L362.36,241.47L362.36,240.83L362.68,240.51L362.68,240.19L363.00,239.87L363.00,239.23L363.32,238.92L363.32,237.96L363.64,237.64L363.64,236.04L363.96,235.73L363.96,201.91L363.64,201.59L363.64,199.68L363.32,199.36L363.32,198.09L363.00,197.77L363.00,196.81L362.68,196.49L362.68,196.17L362.36,195.85L362.36,195.22L362.04,194.90L362.04,194.58L361.72,194.26L361.72,193.94L361.40,193.62L361.40,193.30L360.77,192.66L360.77,192.34L360.13,191.71L360.13,191.39L357.26,188.52L356.94,188.52L355.98,187.56L355.66,187.56L355.02,186.92L354.70,186.92L354.39,186.60L354.07,186.60L353.75,186.28L353.43,186.28L353.11,185.96L352.79,185.96L352.47,185.65L352.15,185.65L351.83,185.33L351.20,185.33L350.88,185.01L350.24,185.01L349.92,184.69L348.96,184.69L348.64,184.37L347.69,184.37L347.37,184.05L345.77,184.05L345.45,183.73L338.76,183.73L338.44,183.41L338.44,163.00L338.12,162.68L338.12,161.08L337.80,160.77L337.80,159.81L337.48,159.49L337.48,158.85L337.16,158.53L337.16,157.89L336.84,157.58L336.84,157.26L336.52,156.94L336.52,156.62L336.20,156.30L336.20,155.98L335.89,155.66L335.89,155.34L335.57,155.02L335.57,154.70L335.25,154.39L335.25,154.07L334.29,153.11L334.29,152.79L330.46,148.96L330.14,148.96L329.51,148.33L329.19,148.33L328.55,147.69L328.23,147.69L327.91,147.37L327.59,147.37L327.27,147.05L326.95,147.05L326.63,146.73L326.32,146.73L326.00,146.41L325.68,146.41L325.36,146.09L324.72,146.09L324.40,145.77L323.76,145.77L323.44,145.45L322.81,145.45L322.49,145.14L321.53,145.14L321.21,144.82L319.94,144.82L319.62,144.50L317.07,144.50L316.75,144.18L307.18,144.18L306.86,143.86L306.86,137.16L306.54,136.84Z M307.18,164.91L315.15,164.91L315.47,165.23L316.43,165.23L316.75,165.55L317.07,165.55L317.70,166.19L317.70,166.51L318.34,167.15L318.34,183.41L318.02,183.73L307.18,183.73L306.54,183.09L306.54,165.55Z M171.29,136.84L171.29,137.16L170.97,137.48L170.97,137.80L170.65,138.12L170.65,138.44L170.33,138.76L170.33,139.07L170.02,139.39L170.02,139.71L169.70,140.03L169.70,140.35L169.38,140.67L169.38,140.99L169.06,141.31L169.06,141.63L168.74,141.95L168.74,142.26L168.42,142.58L168.42,142.90L168.10,143.22L168.10,143.54L167.78,143.86L167.78,144.18L167.46,144.50L167.46,144.82L167.15,145.14L167.15,145.45L166.83,145.77L166.83,146.09L166.51,146.41L166.51,146.73L166.19,147.05L166.19,147.37L165.87,147.69L165.87,148.01L165.23,148.64L165.23,148.96L164.91,149.28L164.91,149.60L164.59,149.92L164.59,150.24L164.27,150.56L164.27,150.88L163.96,151.20L163.96,151.52L163.64,151.83L163.64,152.47L163.32,152.79L163.32,153.11L162.68,153.75L162.68,154.07L162.36,154.39L162.36,154.70L162.04,155.02L162.04,155.34L161.72,155.66L161.72,155.98L161.40,156.30L161.40,156.62L161.08,156.94L161.08,157.58L160.45,158.21L160.45,158.53L160.13,158.85L160.13,159.17L159.81,159.49L159.81,159.81L159.49,160.13L159.49,160.45L159.17,160.77L159.17,161.08L158.85,161.40L158.85,161.72L158.53,162.04L158.53,162.36L158.21,162.68L158.21,163.00L157.89,163.32L157.89,163.64L157.58,163.96L157.58,164.27L157.26,164.59L157.26,164.91L156.94,165.23L156.94,165.55L156.62,165.87L156.62,166.19L156.30,166.51L156.30,167.15L155.98,167.46L155.98,167.78L155.66,168.10L155.66,168.42L155.34,168.74L155.34,169.06L155.02,169.38L155.02,169.70L154.70,170.02L154.70,170.33L154.39,170.65L154.39,170.97L154.07,171.29L154.07,171.61L153.75,171.93L153.75,172.25L153.43,172.57L153.43,173.21L153.11,173.52L153.11,173.84L152.79,174.16L152.79,174.80L152.47,175.12L152.47,175.76L152.15,176.08L152.15,176.71L151.83,177.03L151.83,177.99L151.52,178.31L151.52,180.54L151.83,180.86L151.83,181.82L152.15,182.14L152.15,182.46L152.47,182.78L152.47,183.09L153.11,183.73L153.11,184.05L153.75,184.69L154.07,184.69L154.70,185.33L155.02,185.33L155.34,185.65L155.66,185.65L155.98,185.96L156.30,185.96L156.62,186.28L157.58,186.28L157.89,186.60L171.29,186.60L171.61,186.92L171.61,187.24L171.29,187.56L171.29,187.88L170.97,188.20L170.97,188.52L170.65,188.84L170.65,189.15L170.33,189.47L170.33,189.79L170.02,190.11L170.02,190.43L169.70,190.75L169.70,191.07L169.38,191.39L169.38,191.71L169.06,192.03L169.06,192.34L168.74,192.66L168.74,192.98L168.42,193.30L168.42,193.62L168.10,193.94L168.10,194.58L167.46,195.22L167.46,195.85L167.15,196.17L167.15,196.49L166.83,196.81L166.83,197.13L166.51,197.45L166.51,197.77L166.19,198.09L166.19,198.41L165.87,198.72L165.87,199.04L165.55,199.36L165.55,199.68L165.23,200.00L165.23,200.32L164.91,200.64L164.91,200.96L164.59,201.28L164.59,201.59L164.27,201.91L164.27,202.23L163.96,202.55L163.96,202.87L163.64,203.19L163.64,203.51L163.32,203.83L163.32,204.15L163.00,204.47L163.00,204.78L162.68,205.10L162.68,205.42L162.36,205.74L162.36,206.06L162.04,206.38L162.04,206.70L161.72,207.02L161.72,207.34L161.40,207.66L161.40,208.29L161.08,208.61L161.08,208.93L160.77,209.25L160.77,209.57L160.45,209.89L160.45,210.21L160.13,210.53L160.13,210.85L159.81,211.16L159.81,211.80L159.49,212.12L159.49,213.08L159.17,213.40L159.17,217.22L159.49,217.54L159.49,218.18L159.81,218.50L159.81,218.82L160.13,219.14L160.13,219.46L161.72,221.05L162.04,221.05L162.68,221.69L163.00,221.69L163.32,222.01L163.96,222.01L164.27,222.33L165.23,222.33L165.55,222.65L189.15,222.65L189.15,222.33L189.47,222.01L189.47,221.69L189.79,221.37L189.79,221.05L190.11,220.73L190.11,220.41L190.43,220.10L190.43,219.78L190.75,219.46L190.75,219.14L191.07,218.82L191.07,218.50L191.39,218.18L191.39,217.86L191.71,217.54L191.71,217.22L192.03,216.91L192.03,216.59L192.34,216.27L192.34,215.95L192.66,215.63L192.66,215.31L192.98,214.99L192.98,214.67L193.30,214.35L193.30,214.04L193.62,213.72L193.62,213.40L193.94,213.08L193.94,212.76L194.26,212.44L194.26,212.12L194.58,211.80L194.58,211.48L194.90,211.16L194.90,210.85L195.22,210.53L195.22,210.21L195.53,209.89L195.53,209.57L195.85,209.25L195.85,208.93L196.17,208.61L196.17,208.29L196.49,207.97L196.49,207.66L196.81,207.34L196.81,207.02L197.13,206.70L197.13,206.38L197.45,206.06L197.45,205.74L197.77,205.42L196.17,205.42L195.85,205.10L194.58,205.10L194.26,205.42L191.39,205.42L191.07,205.10L190.43,205.10L190.11,205.42L188.84,205.42L188.52,205.10L186.60,205.10L186.28,204.78L185.96,204.78L185.33,204.15L185.33,203.83L185.01,203.51L185.01,201.59L185.33,201.28L185.33,200.96L185.65,200.64L185.65,200.32L185.96,200.00L185.96,199.68L186.60,199.04L186.60,198.41L186.92,198.09L186.92,197.77L187.24,197.45L187.24,197.13L187.56,196.81L187.56,196.49L187.88,196.17L187.88,195.85L188.20,195.53L188.20,195.22L188.52,194.90L188.52,194.58L188.84,194.26L188.84,193.94L189.15,193.62L189.15,193.30L189.47,192.98L189.47,192.66L189.79,192.34L189.79,192.03L190.11,191.71L190.11,191.39L190.43,191.07L190.43,190.75L190.75,190.43L190.75,190.11L191.07,189.79L191.07,189.47L191.39,189.15L191.39,188.84L191.71,188.52L191.71,188.20L192.03,187.88L192.03,187.56L192.34,187.24L192.34,186.92L192.66,186.60L192.66,186.28L192.98,185.96L192.98,185.65L193.30,185.33L193.30,185.01L193.62,184.69L193.62,184.37L193.94,184.05L193.94,183.73L194.26,183.41L194.26,183.09L194.58,182.78L194.58,182.46L194.90,182.14L194.90,181.82L195.22,181.50L195.22,181.18L195.53,180.86L195.53,180.54L195.85,180.22L195.85,179.90L196.17,179.59L196.17,179.27L196.49,178.95L196.49,178.63L196.81,178.31L196.81,177.99L197.13,177.67L197.13,177.35L197.45,177.03L197.45,176.71L197.77,176.40L197.77,176.08L198.09,175.76L198.09,175.44L198.41,175.12L198.41,174.80L198.72,174.48L198.72,174.16L199.04,173.84L199.04,173.52L199.36,173.21L199.36,172.89L199.68,172.57L199.68,172.25L200.00,171.93L200.00,171.61L200.32,171.29L200.32,170.97L200.64,170.65L200.64,170.33L200.96,170.02L200.96,169.70L201.28,169.38L201.28,169.06L201.59,168.74L201.59,168.42L201.91,168.10L201.91,167.78L202.23,167.46L202.23,167.15L202.55,166.83L202.55,166.51L202.87,166.19L202.87,165.87L182.14,165.87L182.14,166.19L181.82,166.51L181.82,166.83L181.50,167.15L181.50,167.46L181.18,167.78L181.18,168.10L180.86,168.42L180.86,168.74L180.54,169.06L178.95,169.06L177.67,167.78L177.67,167.46L177.35,167.15L177.35,166.83L177.67,166.51L177.67,165.87L177.99,165.55L177.99,165.23L178.31,164.91L178.31,164.59L178.63,164.27L178.63,163.96L178.95,163.64L178.95,163.32L179.27,163.00L179.27,162.68L179.59,162.36L179.59,162.04L179.90,161.72L179.90,161.40L180.22,161.08L180.22,160.77L180.54,160.45L180.54,160.13L180.86,159.81L180.86,159.49L181.18,159.17L181.18,158.85L181.50,158.53L181.50,158.21L181.82,157.89L181.82,157.58L182.14,157.26L182.14,156.94L182.78,156.30L182.78,155.98L183.09,155.66L183.09,155.34L183.41,155.02L183.41,154.70L183.73,154.39L183.73,154.07L184.05,153.75L184.05,153.43L184.37,153.11L184.37,152.79L184.69,152.47L184.69,152.15L185.01,151.83L185.01,151.52L185.33,151.20L185.33,150.88L185.65,150.56L185.65,150.24L185.96,149.92L185.96,149.60L186.28,149.28L186.28,148.96L186.60,148.64L186.60,148.33L186.92,148.01L186.92,147.69L187.24,147.37L187.24,147.05L187.56,146.73L187.56,146.41L187.88,146.09L187.88,145.77L188.20,145.45L188.20,145.14L188.52,144.82L188.52,144.50L188.84,144.18L188.84,143.86L189.15,143.54L189.15,143.22L189.47,142.90L189.47,142.58L189.79,142.26L189.79,141.95L190.11,141.63L190.11,141.31L190.75,140.67L190.75,140.35L191.07,140.03L191.07,139.71L191.39,139.39L191.39,139.07L191.71,138.76L191.71,138.44L192.03,138.12L192.03,137.80L192.34,137.48L192.34,137.16L192.66,136.84Z M82.30,136.84L82.30,233.17L81.66,233.81L67.62,233.81L67.62,235.41L67.94,235.73L67.94,237.32L68.26,237.64L68.26,238.60L68.58,238.92L68.58,239.55L68.90,239.87L68.90,240.83L69.22,241.15L69.22,241.47L69.54,241.79L69.54,242.11L69.86,242.42L69.86,242.74L70.18,243.06L70.18,243.38L70.49,243.70L70.49,244.02L71.13,244.66L71.13,244.98L71.77,245.61L71.77,245.93L74.00,248.17L74.32,248.17L74.96,248.80L75.28,248.80L75.92,249.44L76.24,249.44L76.56,249.76L76.87,249.76L77.19,250.08L77.51,250.08L77.83,250.40L78.47,250.40L78.79,250.72L79.43,250.72L79.74,251.04L80.70,251.04L81.02,251.36L82.62,251.36L82.93,251.67L87.08,251.67L87.40,251.36L89.31,251.36L89.63,251.04L90.27,251.04L90.59,250.72L91.23,250.72L91.55,250.40L92.19,250.40L92.50,250.08L92.82,250.08L93.14,249.76L93.46,249.76L93.78,249.44L94.10,249.44L94.42,249.12L94.74,249.12L95.37,248.48L95.69,248.48L98.88,245.30L98.88,244.98L99.52,244.34L99.52,244.02L99.84,243.70L99.84,243.38L100.16,243.06L100.16,242.74L100.48,242.42L100.48,242.11L100.80,241.79L100.80,241.47L101.12,241.15L101.12,240.83L101.44,240.51L101.44,239.87L101.75,239.55L101.75,238.60L102.07,238.28L102.07,237.32L102.39,237.00L102.39,235.09L102.71,234.77L102.71,136.84Z" fill="currentColor" fill-rule="evenodd"/>
</svg>